<svg viewBox="0 0 246.26 122.2" xmlns="http://www.w3.org/2000/svg" xmlns:xlink="http://www.w3.org/1999/xlink" id="Camada_1" overflow="hidden"><defs></defs><path d="M129.35 30.35 144.38 30.35 144.38 34.09 133.74 34.09 133.74 41.72 142.84 41.72 142.84 45.46 133.74 45.46 133.74 57.33 129.35 57.33 129.35 30.35Z" fill="#263375"></path><g><path d="M147.92 37.91 151.89 37.91 151.89 40.11C153.24 38.61 154.93 37.53 157.32 37.53 157.94 37.53 158.52 37.64 159.02 37.8L159.02 41.69C158.4 41.54 157.79 41.42 156.98 41.42 154.51 41.42 152.89 42.73 151.89 44.39L151.89 57.34 147.92 57.34 147.92 37.92Z" fill="#263375"></path><path d="M168.58 54.67C171.01 54.67 172.9 53.51 174.05 51.66L174.05 48.31 168.81 49.2C166.38 49.62 165.38 50.66 165.38 52.13 165.38 53.6 166.57 54.67 168.58 54.67M161.37 52.28C161.37 49.35 163.64 47.23 167.77 46.54L174.05 45.5 174.05 44.5C174.05 42.11 172.28 40.65 169.77 40.65 167.65 40.65 165.99 41.61 164.88 43.19L161.91 40.92C163.64 38.61 166.42 37.14 169.89 37.14 175.13 37.14 178.02 40.22 178.02 44.5L178.02 57.33 174.05 57.33 174.05 55.13C172.66 56.82 170.23 57.91 167.85 57.91 164 57.91 161.38 55.71 161.38 52.28" fill="#263375"></path><path d="M183.63 37.91 187.6 37.91 187.6 39.8C189.06 38.26 190.99 37.14 193.77 37.14 198.05 37.14 201.32 40.03 201.32 45.66L201.32 57.34 197.31 57.34 197.31 45.82C197.31 42.74 195.61 40.89 192.84 40.89 190.07 40.89 188.6 42.55 187.6 44.24L187.6 57.34 183.63 57.34 183.63 37.92Z" fill="#263375"></path><path d="M221.59 51.78 224.71 54.17C222.94 56.56 220.09 58.1 216.5 58.1 209.99 58.1 205.9 53.28 205.9 47.62 205.9 41.96 209.99 37.14 216.5 37.14 220.04 37.14 222.94 38.68 224.71 41.07L221.59 43.46C220.51 41.96 218.74 40.88 216.5 40.88 212.76 40.88 210.06 43.81 210.06 47.62 210.06 51.43 212.76 54.36 216.53 54.36 218.73 54.36 220.5 53.28 221.58 51.78" fill="#263375"></path><path d="M231.46 45.11 241.9 45.11C241.82 42.68 240.09 40.45 236.97 40.45 234.08 40.45 232.08 42.11 231.46 45.11M237.86 58.1C231.15 58.1 227.18 53.28 227.18 47.62 227.18 41.96 230.88 37.14 237.05 37.14 242.41 37.14 245.88 40.8 245.88 45.73 245.88 46.62 245.76 47.5 245.61 48.08L231.27 48.08C231.54 52.32 234.12 54.52 237.86 54.52 240.21 54.52 242.18 53.48 243.37 51.86L246.26 54.17C244.45 56.6 241.48 58.1 237.86 58.1" fill="#263375"></path></g><path d="M126.46 64.29 148.23 64.29 148.23 68.34 139.56 68.34 139.56 91.27 135.13 91.27 135.13 68.34 126.46 68.34 126.46 64.29Z" fill="#263375"></path><g><path d="M150.12 71.85 154.09 71.85 154.09 74.05C155.44 72.55 157.13 71.47 159.52 71.47 160.14 71.47 160.72 71.59 161.22 71.74L161.22 75.63C160.6 75.48 159.99 75.36 159.18 75.36 156.71 75.36 155.09 76.67 154.09 78.33L154.09 91.28 150.12 91.28 150.12 71.86Z" fill="#263375"></path><path d="M170.77 88.61C173.2 88.61 175.09 87.45 176.24 85.6L176.24 82.25 171 83.14C168.57 83.56 167.57 84.6 167.57 86.07 167.57 87.54 168.76 88.61 170.77 88.61M163.56 86.22C163.56 83.29 165.83 81.17 169.96 80.48L176.24 79.44 176.24 78.44C176.24 76.05 174.47 74.59 171.96 74.59 169.84 74.59 168.18 75.55 167.07 77.13L164.1 74.86C165.83 72.55 168.61 71.08 172.08 71.08 177.32 71.08 180.21 74.16 180.21 78.44L180.21 91.27 176.24 91.27 176.24 89.07C174.85 90.76 172.42 91.84 170.04 91.84 166.19 91.84 163.57 89.64 163.57 86.21" fill="#263375"></path></g><path d="M187.65 71.85 193.35 86.95 199.02 71.85 203.34 71.85 195.97 91.27 190.69 91.27 183.37 71.85 187.65 71.85Z" fill="#263375"></path><path d="M212.62 88.61C215.05 88.61 216.94 87.45 218.09 85.6L218.09 82.25 212.85 83.14C210.42 83.56 209.42 84.6 209.42 86.07 209.42 87.54 210.61 88.61 212.62 88.61M205.41 86.22C205.41 83.29 207.68 81.17 211.81 80.48L218.09 79.44 218.09 78.44C218.09 76.05 216.32 74.59 213.81 74.59 211.69 74.59 210.03 75.55 208.92 77.13L205.95 74.86C207.68 72.55 210.46 71.08 213.93 71.08 219.17 71.08 222.06 74.16 222.06 78.44L222.06 91.27 218.09 91.27 218.09 89.07C216.7 90.76 214.27 91.84 211.89 91.84 208.04 91.84 205.42 89.64 205.42 86.21" fill="#263375"></path><rect x="228.26" y="71.85" width="3.97" height="19.42" fill="#263375"></rect><rect x="238.71" y="62.37" width="3.97" height="28.9" fill="#263375"></rect><g><path d="M227.89 65.92C227.89 64.64 228.97 63.56 230.25 63.56 231.53 63.56 232.61 64.64 232.61 65.92 232.61 67.2 231.53 68.28 230.25 68.28 228.97 68.28 227.89 67.2 227.89 65.92" fill="#263375"></path><path d="M64.65 111.96C64.65 117.61 60.07 122.2 54.41 122.2 48.75 122.2 44.17 117.62 44.17 111.96 44.17 106.3 48.75 101.72 54.41 101.72 60.07 101.72 64.65 106.3 64.65 111.96" fill="#263375"></path><path d="M108.78 35.68C108.78 41.33 104.2 45.91 98.55 45.91 92.9 45.91 88.31 41.33 88.31 35.68 88.31 30.03 92.89 25.45 98.55 25.45 104.21 25.45 108.78 30.03 108.78 35.68" fill="#263375"></path><path d="M108.78 86.64C108.78 92.29 104.2 96.87 98.55 96.87 92.9 96.87 88.31 92.29 88.31 86.64 88.31 80.99 92.89 76.41 98.55 76.41 104.21 76.41 108.78 80.99 108.78 86.64" fill="#263375"></path><path d="M41.31 48.41C41.31 54.06 36.73 58.64 31.08 58.64 25.43 58.64 20.84 54.06 20.84 48.41 20.84 42.76 25.42 38.18 31.08 38.18 36.74 38.18 41.31 42.76 41.31 48.41" fill="#EBA1C7"></path><path d="M89.42 48.41C89.42 54.06 84.84 58.64 79.19 58.64 73.54 58.64 68.95 54.06 68.95 48.41 68.95 42.76 73.53 38.18 79.19 38.18 84.85 38.18 89.42 42.76 89.42 48.41" fill="#263375"></path><path d="M89.42 75.43C89.42 81.08 84.84 85.66 79.19 85.66 73.54 85.66 68.95 81.08 68.95 75.43 68.95 69.78 73.53 65.2 79.19 65.2 84.85 65.2 89.42 69.78 89.42 75.43" fill="#2B87E5"></path><path d="M39.79 76.35C39.79 82 35.21 86.58 29.56 86.58 23.91 86.58 19.32 82 19.32 76.35 19.32 70.7 23.9 66.12 29.56 66.12 35.22 66.12 39.79 70.7 39.79 76.35" fill="#263375"></path><path d="M64.65 87.81C64.65 93.46 60.07 98.04 54.42 98.04 48.77 98.04 44.19 93.46 44.19 87.81 44.19 82.16 48.77 77.58 54.42 77.58 60.07 77.58 64.65 82.16 64.65 87.81" fill="#EBA1C7"></path><path d="M70.89 60.3C70.89 70.17 62.89 78.17 53.02 78.17 43.15 78.17 35.15 70.17 35.15 60.3 35.15 50.43 43.15 42.43 53.02 42.43 62.89 42.43 70.89 50.43 70.89 60.3" fill="#2B87E5"></path><path d="M20.27 33.46C21.49 38.98 18.01 44.44 12.5 45.66 6.98 46.88 1.52 43.4 0.3 37.89-0.92 32.37 2.56 26.91 8.07 25.69 13.59 24.47 19.05 27.95 20.27 33.46" fill="#263375"></path><path d="M19.26 55.6C18.8 58.79 15.85 61 12.67 60.54 9.49 60.09 7.27 57.14 7.73 53.95 8.18 50.77 11.13 48.55 14.32 49.01 17.5 49.47 19.72 52.41 19.26 55.6" fill="#D92426"></path><path d="M77.97 97.77C77.45 101.43 74.06 103.97 70.4 103.45 66.74 102.93 64.2 99.54 64.72 95.88 65.24 92.22 68.63 89.68 72.29 90.2 75.95 90.72 78.49 94.11 77.97 97.77" fill="#D92426"></path><path d="M97.82 55.35C97.5 57.56 95.46 59.09 93.25 58.78 91.04 58.47 89.51 56.42 89.82 54.21 90.14 52 92.18 50.47 94.39 50.78 96.6 51.1 98.13 53.14 97.82 55.35" fill="#D92426"></path><path d="M57.96 36.33C57.5 39.52 54.55 41.73 51.37 41.27 48.19 40.82 45.97 37.86 46.43 34.68 46.89 31.5 49.84 29.28 53.02 29.74 56.2 30.2 58.42 33.14 57.96 36.33" fill="#D92426"></path><path d="M74.72 28.78C74.26 31.97 71.31 34.18 68.13 33.72 64.95 33.27 62.73 30.32 63.19 27.13 63.65 23.95 66.6 21.73 69.78 22.19 72.96 22.65 75.18 25.59 74.72 28.78" fill="#EBA1C7"></path><path d="M36.84 92.84C36.39 96.03 33.43 98.24 30.25 97.78 27.07 97.33 24.85 94.37 25.31 91.19 25.76 88.01 28.71 85.79 31.9 86.25 35.08 86.71 37.3 89.66 36.84 92.84" fill="#F2D138"></path><path d="M94.13 66.64C93.67 69.83 90.72 72.04 87.54 71.58 84.36 71.13 82.14 68.17 82.6 64.99 83.05 61.81 86 59.59 89.19 60.05 92.37 60.51 94.59 63.46 94.13 66.64" fill="#F2D138"></path><path d="M87.46 93.71C89.18 96.43 88.36 100.03 85.64 101.74 82.92 103.46 79.32 102.64 77.6 99.92 75.88 97.2 76.7 93.6 79.42 91.89 82.14 90.17 85.74 90.99 87.46 93.71" fill="#263375"></path><path d="M42.96 25.32C42.5 28.51 39.55 30.72 36.37 30.26 33.19 29.81 30.97 26.86 31.43 23.67 31.88 20.49 34.83 18.27 38.02 18.73 41.2 19.19 43.42 22.13 42.96 25.32" fill="#F2D138"></path><path d="M64.62 10.2C64.62 15.83 60.05 20.4 54.42 20.4 48.79 20.4 44.22 15.83 44.22 10.2 44.22 4.57 48.79 0 54.42 0 60.05 0 64.62 4.57 64.62 10.2" fill="#2B87E5"></path><path d="M20.47 86.59C20.47 92.24 15.89 96.82 10.24 96.82 4.59 96.82 0 92.24 0 86.59 0 80.94 4.58 76.36 10.24 76.36 15.9 76.36 20.47 80.94 20.47 86.59" fill="#2B87E5"></path></g></svg>